<svg width="242" height="48" viewBox="0 0 242 48" fill="none" xmlns="http://www.w3.org/2000/svg">
<g clip-path="url(#clip0_3_16)">
<g opacity="0.25">
<path d="M11.5111 26.0644V47.2562C11.5111 47.5076 11.48 47.7521 11.4178 47.9759C10.6262 48.0689 9.78617 47.8347 9.12247 47.1701L1.09235 39.1776C0.390617 38.4785 0 37.5384 0 36.5501V16.8976C0 16.6462 0.0311111 16.4017 0.0933333 16.1779C0.884938 16.0849 1.72494 16.3191 2.38864 16.9837L11.5077 26.0679L11.5111 26.0644Z" fill="url(#paint0_linear_3_16)"/>
<path d="M25.4351 13.516V33.1685C25.4351 33.4199 25.4039 33.6644 25.3417 33.8882C24.5501 33.9812 23.7101 33.747 23.0464 33.0824L13.9274 23.9983V2.80651C13.9274 2.55513 13.9585 2.31064 14.0207 2.0868C14.8123 1.99383 15.6523 2.22799 16.316 2.8926L24.3427 10.8886C25.041 11.5876 25.4351 12.5277 25.4351 13.516Z" fill="url(#paint1_linear_3_16)"/>
</g>
<path d="M13.924 23.9983V45.19C13.924 46.75 12.7348 47.8244 11.4178 47.9759C11.48 47.7486 11.5111 47.5076 11.5111 47.2562V26.0644L2.3921 16.9803C1.7284 16.3191 0.888395 16.0815 0.0967903 16.1745C0.604938 14.1806 3.21136 13.3301 4.80494 14.9141L11.5146 21.5981L13.9274 24.0017L13.924 23.9983Z" fill="url(#paint2_linear_3_16)"/>
<path d="M11.5111 26.0644V47.2562C11.5111 47.5076 11.48 47.7521 11.4178 47.9759C10.6262 48.0689 9.78617 47.8347 9.12247 47.1701L1.09235 39.1776C0.390617 38.4785 0 37.5384 0 36.5501V16.8976C0 16.6462 0.0311111 16.4017 0.0933333 16.1779C0.884938 16.0849 1.72494 16.3191 2.38864 16.9837L11.5077 26.0679L11.5111 26.0644Z" fill="url(#paint3_linear_3_16)"/>
<path d="M27.8444 11.4499V31.1024C27.8444 32.6623 26.6553 33.7367 25.3383 33.8882C25.4005 33.661 25.4316 33.4199 25.4316 33.1685V13.516C25.4316 12.5277 25.0341 11.5876 24.3393 10.8886L16.3126 2.8926C15.6489 2.23144 14.8089 1.99383 14.0173 2.08681C14.5254 0.0895329 17.1319 -0.757587 18.7254 0.826458L26.7521 8.82244C27.4538 9.52149 27.8444 10.4685 27.8444 11.4499Z" fill="url(#paint4_linear_3_16)"/>
<path d="M25.4351 13.516V33.1685C25.4351 33.4199 25.4039 33.6644 25.3417 33.8882C24.5501 33.9812 23.7101 33.747 23.0464 33.0824L13.9274 23.9983V2.80651C13.9274 2.55513 13.9585 2.31064 14.0207 2.0868C14.8123 1.99383 15.6523 2.22799 16.316 2.8926L24.3427 10.8886C25.041 11.5876 25.4351 12.5277 25.4351 13.516Z" fill="url(#paint5_linear_3_16)"/>
</g>
<path d="M58.168 34V14.4H62.368V34H58.168ZM45.876 34V14.4H50.076V34H45.876ZM49.544 25.684V22.296H58.84V25.684H49.544ZM76.8624 34V27.28L70.1704 14.4H74.9304L79.3824 23.808H78.5984L83.0224 14.4H87.7264L81.0624 27.28V34H76.8624ZM95.5487 34V14.4H103.165C104.77 14.4 106.095 14.6707 107.141 15.212C108.205 15.7533 108.998 16.5 109.521 17.452C110.043 18.3853 110.305 19.44 110.305 20.616C110.305 21.7173 110.053 22.7347 109.549 23.668C109.045 24.6013 108.27 25.3573 107.225 25.936C106.179 26.5147 104.826 26.804 103.165 26.804H99.7487V34H95.5487ZM99.7487 23.444H102.885C103.986 23.444 104.779 23.192 105.265 22.688C105.769 22.1653 106.021 21.4747 106.021 20.616C106.021 19.7387 105.769 19.0573 105.265 18.572C104.779 18.068 103.986 17.816 102.885 17.816H99.7487V23.444ZM118.621 34V14.4H131.753V17.788H122.821V22.408H130.913V25.656H122.821V30.612H131.753V34H118.621ZM140.682 34V14.4H148.298C149.885 14.4 151.201 14.68 152.246 15.24C153.31 15.7813 154.094 16.5093 154.598 17.424C155.121 18.3387 155.382 19.356 155.382 20.476C155.382 21.5213 155.13 22.5013 154.626 23.416C154.141 24.3307 153.376 25.068 152.33 25.628C151.285 26.188 149.932 26.468 148.27 26.468H144.882V34H140.682ZM150.79 34L146.842 25.432H151.35L155.55 34H150.79ZM144.882 23.444H148.046C149.092 23.444 149.857 23.192 150.342 22.688C150.846 22.184 151.098 21.5027 151.098 20.644C151.098 19.804 150.846 19.1413 150.342 18.656C149.857 18.152 149.092 17.9 148.046 17.9H144.882V23.444ZM171.108 34.336C169.708 34.336 168.438 34.1027 167.3 33.636C166.18 33.1507 165.293 32.4413 164.64 31.508C163.986 30.5747 163.632 29.4267 163.576 28.064H168.056C168.074 28.6053 168.214 29.0813 168.476 29.492C168.737 29.9027 169.092 30.2293 169.54 30.472C169.988 30.696 170.51 30.808 171.108 30.808C171.612 30.808 172.05 30.7333 172.424 30.584C172.816 30.416 173.124 30.1827 173.348 29.884C173.572 29.5667 173.684 29.1747 173.684 28.708C173.684 28.2227 173.553 27.812 173.292 27.476C173.03 27.1213 172.676 26.8227 172.228 26.58C171.78 26.3187 171.257 26.0853 170.66 25.88C170.081 25.656 169.456 25.4413 168.784 25.236C167.234 24.732 166.04 24.0507 165.2 23.192C164.378 22.3333 163.968 21.1853 163.968 19.748C163.968 18.5533 164.257 17.536 164.836 16.696C165.433 15.8373 166.245 15.184 167.272 14.736C168.298 14.288 169.465 14.064 170.772 14.064C172.116 14.064 173.301 14.2973 174.328 14.764C175.354 15.212 176.166 15.8747 176.764 16.752C177.361 17.6107 177.678 18.6373 177.716 19.832H173.208C173.189 19.4213 173.068 19.048 172.844 18.712C172.638 18.376 172.349 18.1053 171.976 17.9C171.621 17.6947 171.201 17.592 170.716 17.592C170.286 17.5733 169.894 17.6387 169.54 17.788C169.204 17.9187 168.924 18.1333 168.7 18.432C168.494 18.712 168.392 19.0667 168.392 19.496C168.392 19.9067 168.494 20.2707 168.7 20.588C168.924 20.8867 169.222 21.148 169.596 21.372C169.988 21.5773 170.436 21.7733 170.94 21.96C171.462 22.1467 172.032 22.3333 172.648 22.52C173.637 22.856 174.542 23.2573 175.364 23.724C176.204 24.172 176.876 24.7693 177.38 25.516C177.902 26.244 178.164 27.2147 178.164 28.428C178.164 29.492 177.884 30.472 177.324 31.368C176.782 32.264 175.989 32.9827 174.944 33.524C173.917 34.0653 172.638 34.336 171.108 34.336ZM199.229 34V14.4H203.429V34H199.229ZM186.937 34V14.4H191.137V34H186.937ZM190.605 25.684V22.296H199.901V25.684H190.605ZM212.771 34V14.4H216.971V34H212.771ZM226.328 34V14.4H233.944C235.55 14.4 236.875 14.6707 237.92 15.212C238.984 15.7533 239.778 16.5 240.3 17.452C240.823 18.3853 241.084 19.44 241.084 20.616C241.084 21.7173 240.832 22.7347 240.328 23.668C239.824 24.6013 239.05 25.3573 238.004 25.936C236.959 26.5147 235.606 26.804 233.944 26.804H230.528V34H226.328ZM230.528 23.444H233.664C234.766 23.444 235.559 23.192 236.044 22.688C236.548 22.1653 236.8 21.4747 236.8 20.616C236.8 19.7387 236.548 19.0573 236.044 18.572C235.559 18.068 234.766 17.816 233.664 17.816H230.528V23.444Z" fill="white"/>
<defs>
<linearGradient id="paint0_linear_3_16" x1="0" y1="32.0769" x2="11.5111" y2="32.0769" gradientUnits="userSpaceOnUse">
<stop stop-color="#0A2FF6"/>
<stop offset="1" stop-color="#F4A9FE"/>
</linearGradient>
<linearGradient id="paint1_linear_3_16" x1="13.9239" y1="17.9892" x2="25.4351" y2="17.9892" gradientUnits="userSpaceOnUse">
<stop stop-color="#0A2FF6"/>
<stop offset="1" stop-color="#F4A9FE"/>
</linearGradient>
<linearGradient id="paint2_linear_3_16" x1="16.0844" y1="0.251378" x2="8.9208" y2="24.6296" gradientUnits="userSpaceOnUse">
<stop stop-color="#0A2FF6"/>
<stop offset="1" stop-color="#F4A9FE"/>
</linearGradient>
<linearGradient id="paint3_linear_3_16" x1="-0.283456" y1="38.5405" x2="23.9112" y2="12.4594" gradientUnits="userSpaceOnUse">
<stop stop-color="#0A2FF6"/>
<stop offset="1" stop-color="#F4A9FE"/>
</linearGradient>
<linearGradient id="paint4_linear_3_16" x1="25.0514" y1="2.88572" x2="17.8877" y2="27.2639" gradientUnits="userSpaceOnUse">
<stop stop-color="#0A2FF6"/>
<stop offset="1" stop-color="#F4A9FE"/>
</linearGradient>
<linearGradient id="paint5_linear_3_16" x1="0.117528" y1="38.9124" x2="24.3122" y2="12.8313" gradientUnits="userSpaceOnUse">
<stop stop-color="#0A2FF6"/>
<stop offset="1" stop-color="#F4A9FE"/>
</linearGradient>
<clipPath id="clip0_3_16">
<rect width="28" height="48" fill="white"/>
</clipPath>
</defs>
</svg>
