<svg width="24" height="25" viewBox="0 0 24 25" fill="none" xmlns="http://www.w3.org/2000/svg">
<g clip-path="url(#clip0_15_39)">
<path d="M17.8118 23.0038C17.7225 23.051 17.73 23.066 17.8155 23.0225C17.8433 23.0113 17.8665 22.9955 17.8868 22.9768C17.8868 22.961 17.8868 22.961 17.8118 23.0038ZM17.9918 22.9063C17.949 22.9415 17.949 22.9415 18 22.9183C18.027 22.9025 18.051 22.8875 18.051 22.883C18.051 22.8628 18.039 22.8673 17.9918 22.9063ZM18.1087 22.8358C18.066 22.871 18.066 22.871 18.117 22.8478C18.1448 22.832 18.168 22.8155 18.168 22.8118C18.168 22.793 18.156 22.7968 18.1087 22.8358ZM18.2272 22.766C18.1845 22.8013 18.1845 22.8013 18.234 22.7773C18.2617 22.7623 18.285 22.7465 18.285 22.742C18.285 22.7233 18.273 22.727 18.2272 22.766ZM18.387 22.6603C18.3053 22.715 18.2768 22.7503 18.3517 22.7113C18.402 22.6805 18.4875 22.613 18.4725 22.613C18.4402 22.625 18.4132 22.6453 18.3862 22.6603H18.387ZM11.2148 0.508259C11.16 0.512009 10.9957 0.527009 10.8517 0.539009C7.44075 0.848009 4.2495 2.68401 2.22675 5.51226C1.1085 7.06251 0.3825 8.86326 0.10875 10.754C0.012 11.414 0 11.609 0 12.5038C0 13.3978 0.012 13.5898 0.10875 14.2498C0.762 18.758 3.969 22.5425 8.316 23.945C9.09825 24.1948 9.918 24.3673 10.8517 24.473C11.2148 24.512 12.7845 24.512 13.1475 24.473C14.7615 24.293 16.1243 23.8948 17.4728 23.207C17.6798 23.102 17.7188 23.0743 17.691 23.051C17.031 22.1803 16.383 21.3088 15.7343 20.4298L13.8165 17.84L11.4142 14.2813C10.6132 13.0903 9.80925 11.9023 8.9925 10.7233C8.98425 10.7233 8.97375 12.305 8.96925 14.234C8.961 17.6128 8.961 17.75 8.91825 17.828C8.8755 17.9218 8.805 17.9998 8.71125 18.0433C8.637 18.0785 8.57025 18.086 8.2155 18.086H7.80975L7.704 18.02C7.638 17.9773 7.58325 17.918 7.548 17.8483L7.497 17.7425L7.50075 13.0393L7.509 8.33601L7.58325 8.24226C7.6305 8.18451 7.689 8.13726 7.755 8.10201C7.85325 8.05476 7.89225 8.04726 8.298 8.04726C8.77425 8.04726 8.853 8.06601 8.97825 8.20326C9.95025 9.65226 10.9192 11.105 11.8725 12.5623C13.4318 14.9263 15.5603 18.152 16.6065 19.7345L18.5093 22.6138L18.603 22.5515C19.5173 21.9418 20.349 21.2158 21.0667 20.3878C22.5788 18.6568 23.5598 16.5275 23.892 14.255C23.9888 13.595 24.0007 13.3993 24.0007 12.5053C24.0007 11.6105 23.9888 11.4193 23.892 10.7593C23.2388 6.25101 20.0317 2.46651 15.6847 1.06326C14.8717 0.806009 14.0355 0.630509 13.1887 0.540509C12.9615 0.517259 11.4105 0.489509 11.2155 0.509759L11.2148 0.508259ZM16.125 7.76601C16.2383 7.82001 16.3237 7.92201 16.3627 8.03901C16.383 8.10201 16.3867 9.40626 16.383 12.344L16.3748 16.562L15.633 15.422L14.8868 14.2813V11.219C14.8868 9.23376 14.895 8.12076 14.9055 8.06601C14.9408 7.94076 15.0262 7.83576 15.1403 7.76976C15.2333 7.72251 15.2692 7.71876 15.6405 7.71876C15.9878 7.71876 16.047 7.72251 16.125 7.76601Z" fill="black"/>
</g>
<defs>
<clipPath id="clip0_15_39">
<rect width="24" height="24" fill="white" transform="translate(0 0.5)"/>
</clipPath>
</defs>
</svg>
