<svg width="24" height="25" viewBox="0 0 24 25" fill="none" xmlns="http://www.w3.org/2000/svg">
<path d="M19.7328 8.73347C19.4838 8.64777 19.2259 8.56669 18.9602 8.49001C19.0039 8.31182 19.044 8.13595 19.0796 7.96306C19.6644 5.12421 19.282 2.83721 17.9763 2.08423C16.7243 1.36223 14.6767 2.11503 12.6087 3.91473C12.4099 4.08779 12.2104 4.27101 12.0111 4.46304C11.8783 4.33599 11.7457 4.21321 11.6134 4.09578C9.44613 2.17142 7.27375 1.36048 5.96931 2.11563C4.71847 2.83973 4.34805 4.98973 4.87449 7.68013C4.92532 7.93999 4.98475 8.20537 5.05194 8.47518C4.74449 8.56246 4.44767 8.6555 4.16367 8.75448C1.62275 9.64036 0 11.0288 0 12.4689C0 13.9562 1.74202 15.4481 4.38859 16.3527C4.59745 16.4241 4.81417 16.4916 5.0375 16.5557C4.96501 16.8475 4.90195 17.1334 4.84903 17.4124C4.34707 20.0561 4.73906 22.1553 5.98656 22.8748C7.27512 23.6179 9.43767 22.8541 11.5435 21.0134C11.7099 20.8679 11.8769 20.7136 12.0443 20.5518C12.2611 20.7607 12.4777 20.9583 12.6931 21.1437C14.7328 22.899 16.7473 23.6077 17.9937 22.8862C19.2809 22.141 19.6993 19.886 19.1561 17.1423C19.1147 16.9328 19.0664 16.7187 19.0122 16.5008C19.164 16.4559 19.3131 16.4096 19.4585 16.3614C22.2099 15.4498 24 13.9761 24 12.4689C24 11.0235 22.3249 9.62579 19.7328 8.73347ZM19.1361 15.3882C19.0048 15.4317 18.8702 15.4736 18.733 15.5144C18.4292 14.5528 18.0193 13.5303 17.5176 12.4739C17.9963 11.4426 18.3904 10.4332 18.6857 9.47786C18.9312 9.5489 19.1695 9.62383 19.3991 9.7029C21.62 10.4675 22.9747 11.5979 22.9747 12.4689C22.9747 13.3967 21.5117 14.6011 19.1361 15.3882ZM18.1504 17.3414C18.3905 18.5546 18.4248 19.6515 18.2657 20.509C18.1228 21.2795 17.8353 21.7932 17.4799 21.9989C16.7236 22.4367 15.1061 21.8676 13.3617 20.3665C13.1618 20.1945 12.9603 20.0107 12.7583 19.8163C13.4345 19.0767 14.1104 18.2169 14.77 17.2619C15.9303 17.159 17.0264 16.9907 18.0204 16.7609C18.0694 16.9584 18.1129 17.1521 18.1504 17.3414ZM8.18214 21.9233C7.44318 22.1842 6.85463 22.1917 6.49886 21.9866C5.74182 21.5499 5.42711 19.8645 5.8564 17.6036C5.90557 17.3446 5.96409 17.0787 6.03155 16.8068C7.0147 17.0242 8.10281 17.1806 9.26581 17.2749C9.92989 18.2093 10.6253 19.0682 11.3261 19.8202C11.1729 19.9681 11.0204 20.1088 10.8688 20.2414C9.93762 21.0553 9.0045 21.6328 8.18214 21.9233ZM4.72018 15.3825C3.54992 14.9825 2.58347 14.4627 1.92102 13.8954C1.32576 13.3856 1.02523 12.8795 1.02523 12.4689C1.02523 11.595 2.32814 10.4803 4.50116 9.72264C4.76482 9.63071 5.04084 9.54407 5.32727 9.46269C5.62759 10.4396 6.02155 11.461 6.49698 12.4938C6.0154 13.542 5.61584 14.5797 5.31258 15.568C5.10838 15.5093 4.91054 15.4475 4.72018 15.3825ZM5.88066 7.48323C5.42963 5.17816 5.72918 3.4393 6.48297 3.00296C7.28588 2.53813 9.06136 3.20088 10.9326 4.86247C11.0523 4.96867 11.1723 5.07982 11.2928 5.19482C10.5955 5.94357 9.90644 6.796 9.24825 7.7249C8.11952 7.82952 7.03905 7.99758 6.04565 8.22262C5.98319 7.97139 5.92787 7.72456 5.88066 7.48323ZM16.2332 10.0395C15.9957 9.62934 15.7519 9.22884 15.5034 8.83928C16.2691 8.93609 17.0028 9.06459 17.6918 9.22184C17.4849 9.88476 17.2271 10.5779 16.9236 11.2884C16.7059 10.8751 16.4757 10.4584 16.2332 10.0395ZM12.0114 5.92755C12.4844 6.43989 12.9579 7.01191 13.4238 7.63254C12.9544 7.61037 12.4791 7.59883 12 7.59883C11.5254 7.59883 11.0537 7.61011 10.5872 7.6319C11.0535 7.01703 11.5312 6.44578 12.0114 5.92755ZM7.76268 10.0466C7.52546 10.458 7.29947 10.8724 7.08519 11.2877C6.78662 10.5796 6.5312 9.88331 6.32255 9.21099C7.00731 9.05775 7.73752 8.93245 8.4984 8.83749C8.24635 9.23064 8.00054 9.63417 7.76268 10.0466ZM8.52031 16.1734C7.73418 16.0857 6.993 15.9668 6.30841 15.8178C6.52039 15.1335 6.78145 14.4224 7.08634 13.699C7.30118 14.114 7.52806 14.5286 7.76674 14.9408C8.00985 15.3608 8.26177 15.7722 8.52031 16.1734ZM12.0398 19.0825C11.5539 18.5582 11.0692 17.9782 10.5958 17.3544C11.0553 17.3724 11.5238 17.3816 12 17.3816C12.4892 17.3816 12.9728 17.3706 13.4488 17.3494C12.9814 17.9845 12.5095 18.5654 12.0398 19.0825ZM16.9334 13.6622C17.2542 14.3933 17.5246 15.1007 17.7393 15.7734C17.0434 15.9322 16.2921 16.06 15.5005 16.155C15.7497 15.7602 15.9956 15.3528 16.2373 14.9338C16.4818 14.5098 16.7139 14.0853 16.9334 13.6622ZM15.3492 14.4216C14.974 15.0721 14.5889 15.6931 14.1978 16.2792C13.4857 16.3301 12.7499 16.3564 12 16.3564C11.2531 16.3564 10.5266 16.3332 9.82706 16.2878C9.42029 15.6939 9.02675 15.0711 8.65398 14.4272C8.28219 13.785 7.94009 13.1374 7.63003 12.4935C7.94001 11.848 8.28129 11.1997 8.65095 10.5587L8.65086 10.5588C9.0215 9.91612 9.41157 9.29634 9.81459 8.70621C10.5283 8.65226 11.2603 8.6241 12 8.6241C12.743 8.6241 13.4759 8.65247 14.1894 8.70689C14.5863 9.29271 14.9737 9.91048 15.3458 10.5533C15.7221 11.2033 16.0678 11.8473 16.3804 12.4789C16.0688 13.1214 15.7238 13.7719 15.3492 14.4216ZM17.4642 2.97246C18.2679 3.43593 18.5804 5.30508 18.0755 7.75613C18.0433 7.91252 18.007 8.07182 17.9676 8.23326C16.9719 8.00351 15.8907 7.83255 14.7586 7.72635C14.0992 6.78724 13.4158 5.93349 12.7298 5.19435C12.9142 5.01694 13.0984 4.84777 13.2818 4.68813C15.0536 3.14616 16.7097 2.53736 17.4642 2.97246ZM12 10.3258C13.1836 10.3258 14.1431 11.2852 14.1431 12.4689C14.1431 13.6525 13.1836 14.612 12 14.612C10.8164 14.612 9.85688 13.6525 9.85688 12.4689C9.85688 11.2852 10.8164 10.3258 12 10.3258Z" fill="#00D8FF"/>
</svg>
